<?xml version="1.0" standalone="no"?>
<!DOCTYPE svg PUBLIC "-//W3C//DTD SVG 20010904//EN"
 "http://www.w3.org/TR/2001/REC-SVG-20010904/DTD/svg10.dtd">
<svg version="1.0" xmlns="http://www.w3.org/2000/svg"
 width="700.000000pt" height="700.000000pt" viewBox="0 0 700.000000 700.000000"
 preserveAspectRatio="xMidYMid meet">
<metadata>
Created by potrace 1.11, written by Peter Selinger 2001-2013
</metadata>
<g transform="translate(0.000000,700.000000) scale(0.100000,-0.100000)"
fill="#000000" stroke="none">
<path d="M5778 4993 c-122 -86 -234 -165 -248 -176 -14 -10 -131 -94 -260
-185 -129 -91 -257 -181 -285 -201 -137 -96 -172 -119 -193 -126 -29 -9 -52 5
-227 136 -77 57 -149 111 -162 119 -12 8 -81 59 -154 113 -74 54 -141 97 -154
97 -36 0 -75 -37 -75 -71 0 -16 22 -71 49 -122 27 -50 68 -128 91 -172 24 -44
72 -136 108 -205 36 -69 69 -130 74 -137 5 -6 10 -26 10 -44 1 -36 -13 -52
-128 -134 -98 -71 -111 -72 -192 -17 -37 25 -245 168 -462 316 -217 149 -407
277 -422 283 -19 9 -36 10 -52 3 -29 -11 -54 -56 -48 -85 4 -16 213 -328 232
-345 3 -3 10 -13 15 -22 6 -10 58 -86 116 -170 58 -84 132 -190 163 -235 73
-106 73 -130 1 -185 -95 -73 -197 -138 -214 -138 -10 0 -323 203 -697 452
-480 319 -687 451 -706 451 -51 0 -91 -60 -68 -103 6 -11 198 -282 426 -602
228 -320 418 -595 421 -610 5 -24 -1 -35 -34 -67 -54 -51 -163 -121 -189 -121
-20 0 -79 37 -556 345 -128 83 -237 152 -242 154 -6 2 -16 9 -22 15 -7 6 -132
88 -278 181 -146 94 -297 190 -335 215 -39 25 -142 91 -230 148 -175 113 -204
122 -240 76 -27 -34 -26 -58 1 -97 20 -29 188 -242 230 -292 10 -11 223 -279
476 -595 252 -317 466 -584 475 -595 9 -11 66 -83 127 -160 61 -77 119 -149
128 -160 9 -11 60 -74 112 -140 52 -66 97 -122 100 -125 3 -3 41 -50 84 -105
138 -173 135 -173 272 -36 106 106 1199 1211 1530 1548 110 110 490 495 846
855 586 592 942 953 1055 1070 58 60 63 89 25 128 -17 16 -39 30 -50 30 -11 0
-121 -70 -244 -157z"/>
</g>
</svg>
